<?xml version="1.0" encoding="utf-8"?>
<!-- Generator: Adobe Illustrator 25.4.1, SVG Export Plug-In . SVG Version: 6.00 Build 0)  -->
<svg version="1.1" id="Layer_1" xmlns="http://www.w3.org/2000/svg" xmlns:xlink="http://www.w3.org/1999/xlink" x="0px" y="0px"
	 viewBox="0 0 438 36" style="enable-background:new 0 0 438 36;" xml:space="preserve">
<style type="text/css">
	.st0{fill:#E60012;}
	.st1{fill-rule:evenodd;clip-rule:evenodd;fill:#FFFFFF;}
	.st2{fill:#FFFFFF;stroke:#FFFFFF;stroke-width:0.3;stroke-miterlimit:10;}
</style>
<path class="st0" d="M0,0h438v36H0V0z"/>
<g>
	<path class="st1" d="M102.8,24.8c-0.1-0.8-0.2-1.5-0.1-2.3v-9.3c0-0.8,0-1.6,0.1-2.4h-2.6c0.1,0.8,0.2,1.6,0.1,2.4v5.9
		c0,0.7,0.1,1.8,0.1,2.5c-0.4-0.7-0.9-1.6-1.4-2.2l-4.4-6.7c-0.4-0.6-0.8-1.2-1.1-1.9h-2.7c0.1,0.8,0.2,1.5,0.1,2.3v9.1
		c0,0.9,0,1.8-0.1,2.6h2.6c-0.1-0.9-0.2-1.8-0.1-2.6v-5.8c0-0.4,0-1.2-0.1-1.5c-0.1-0.6-0.1-0.6-0.1-0.9c0.4,0.8,0.9,1.6,1.2,2.1
		l4.5,6.8c0.4,0.6,0.8,1.2,1.1,1.9H102.8z M106,10.8V13h2.6v-2.2H106z M106,14.7c0.1,0.8,0.2,1.5,0.1,2.3v5.5c0,0.8,0,1.5-0.1,2.3
		h2.6c-0.1-0.8-0.1-1.5-0.1-2.3V17c0-0.8,0-1.5,0.1-2.3L106,14.7z M114.2,24.8c-0.1-0.8-0.1-1.5-0.1-2.3V19c0.8-1.7,1.8-2.6,3.1-2.6
		c0.6,0,1.1,0.2,1.5,0.7c0.2,0.5,0.3,1,0.3,1.5v3.9c0,0.8,0,1.5-0.1,2.3h2.5c-0.1-0.8-0.2-1.5-0.1-2.3v-4.2c0.1-0.9-0.1-1.7-0.6-2.5
		c-0.7-0.9-1.8-1.4-3-1.3c-1.4-0.1-2.8,0.6-3.6,1.9c0-0.2,0-0.5,0-0.8v-0.9h-2.4c0.1,0.8,0.2,1.5,0.1,2.3v5.5c0,0.8,0,1.5-0.1,2.3
		H114.2L114.2,24.8z M125.5,12c0.1,0.7,0.1,1.4,0.1,2.2v0.5H125c-0.5,0-1.1,0-1.6-0.1v2.1c0.5-0.1,1-0.1,1.6-0.1h0.7v5.9
		c0,1.9,0.8,2.6,2.8,2.6c0.7,0,1.5-0.1,2.2-0.4l-0.3-1.9c-0.4,0.3-0.8,0.4-1.3,0.4c-0.5,0.1-1-0.2-1.2-0.8c0-0.1,0-0.3,0-0.4v-5.5
		h0.8c0.6,0,1.1,0,1.7,0.1v-2.1c-0.6,0.1-1.2,0.1-1.8,0.1h-0.7v-0.5c0-0.7,0-1.4,0.1-2.2L125.5,12z M142.2,20.3c0-0.4,0-0.5,0-0.5
		c0-0.9-0.2-1.8-0.5-2.7c-0.7-1.8-2.5-2.9-4.4-2.8c-3,0-4.9,2.1-4.9,5.4c0,3.3,2,5.4,5.1,5.4c1.3,0.1,2.6-0.4,3.6-1.4
		c0.5-0.5,0.8-1,1.1-1.6l-2.1-0.7c-0.1,0.3-0.3,0.6-0.5,0.9c-1.1,1.2-3,1.2-4.2,0c0,0-0.1-0.1-0.1-0.1c-0.4-0.6-0.7-1.3-0.6-2H142.2
		z M134.7,18.6c0.1-1.4,1.3-2.4,2.6-2.4c0.7,0,1.4,0.2,1.9,0.7c0.4,0.5,0.7,1.1,0.8,1.7H134.7z M147.4,24.8
		c-0.1-0.8-0.1-1.5-0.1-2.3V19c0.8-1.7,1.8-2.6,3.1-2.6c0.6,0,1.1,0.2,1.5,0.7c0.2,0.5,0.3,1,0.3,1.5v3.9c0,0.8,0,1.5-0.1,2.3h2.5
		c-0.1-0.8-0.2-1.5-0.1-2.3v-4.2c0.1-0.9-0.1-1.7-0.6-2.5c-0.7-0.9-1.8-1.4-3-1.3c-1.4-0.1-2.8,0.6-3.6,1.9c0-0.2,0-0.5,0-0.8v-0.9
		h-2.4c0.1,0.8,0.2,1.5,0.1,2.3v5.5c0,0.8,0,1.5-0.1,2.3H147.4L147.4,24.8z M165.4,24.8h2.3c-0.1-0.8-0.1-1.6-0.1-2.4v-9.3
		c0-0.8,0-1.6,0.1-2.4h-2.5c0.1,0.8,0.1,1.6,0.1,2.4v1.8c0,0.3,0,0.6,0,0.8c0,0.4,0,0.4,0,0.6c-0.3-0.4-0.6-0.7-0.9-1
		c-0.8-0.6-1.7-0.9-2.7-0.8c-2.9,0-4.7,2-4.7,5.3c-0.1,1.7,0.6,3.3,1.8,4.4c0.8,0.6,1.9,1,2.9,0.9c1.4,0.1,2.8-0.5,3.5-1.7
		c0,0.2,0,0.4,0,0.6L165.4,24.8L165.4,24.8z M159.4,19.8c0-2.1,1.1-3.4,2.8-3.4c0.9,0,1.7,0.4,2.3,1c0.5,0.7,0.8,1.5,0.8,2.3
		c0,0.8-0.2,1.7-0.7,2.4c-0.6,0.7-1.4,1.2-2.3,1.2C160.5,23.2,159.4,21.9,159.4,19.8L159.4,19.8z M175.6,25.1c3.1,0,5.2-2.1,5.2-5.4
		s-2-5.3-5.2-5.3c-3.2,0-5.2,2.1-5.2,5.4C170.4,23.1,172.4,25.2,175.6,25.1L175.6,25.1z M175.6,16.2c1.9,0,2.9,1.3,2.9,3.6
		c0,2.1-1.1,3.5-2.9,3.5s-2.9-1.3-2.9-3.5C172.6,17.6,173.8,16.2,175.6,16.2L175.6,16.2z M189.8,20.7c0,0.5,0.2,1,0.3,1.5
		c0.3,0.8,0.8,1.5,1.5,2c1.1,0.6,2.4,1,3.7,0.9c1.5,0.1,3-0.4,4.2-1.3c0.8-0.8,1.2-1.9,1.1-3c0.1-1.2-0.5-2.3-1.5-3
		c-0.9-0.5-1.8-0.9-2.9-1.1c-0.8-0.1-1.7-0.4-2.5-0.6c-0.7-0.2-1.2-0.9-1.2-1.6c0-1.1,1-1.9,2.6-1.9c0.8-0.1,1.6,0.3,2.2,0.9
		c0.3,0.4,0.5,0.8,0.5,1.2l2.5-0.3c-0.1-0.7-0.4-1.4-0.9-2c-1.1-1.3-2.7-1.9-4.4-1.8c-3,0-5,1.6-5,4c0,1.1,0.5,2.2,1.3,2.9
		c0.8,0.6,1.7,0.9,2.6,1.1c2.4,0.6,2.5,0.6,3,0.9c0.6,0.3,0.9,1,0.9,1.6c0,1.3-1.1,2.1-2.8,2.1c-1,0.1-1.9-0.3-2.6-1
		c-0.3-0.4-0.5-1-0.5-1.5L189.8,20.7z M214.1,24.8c0.1-0.6,0.3-1.1,0.4-1.7l1.9-6.2c0.5-1.5,0.5-1.6,0.7-2.2h-2.6
		c-0.1,0.7-0.2,1.4-0.4,2.1l-1,3.5c0,0.1-0.2,0.7-0.2,0.9s-0.1,0.2-0.1,0.4c0-0.2-0.1-0.2-0.1-0.4c-0.1-0.4-0.2-0.7-0.2-0.9l-1.3-4
		c-0.2-0.5-0.3-1.1-0.4-1.7H209c-0.1,0.6-0.3,1.1-0.4,1.7l-1.3,3.8c-0.1,0.2-0.4,1.2-0.4,1.4c-0.1-0.7-0.2-1.2-0.3-1.4l-1-3.4
		c-0.2-0.7-0.3-1.4-0.4-2.1h-2.6c0.2,0.6,0.5,1.4,0.7,2.2l1.9,6.2c0.2,0.5,0.3,1.1,0.5,1.7h2c0.1-0.4,0.3-1.1,0.5-1.7l1.3-4.1
		c0.1-0.2,0.3-0.9,0.4-1.2c0.2,0.7,0.3,1.1,0.3,1.2l1.3,4.1c0.2,0.5,0.3,1.1,0.4,1.7H214.1L214.1,24.8z M219.3,10.8V13h2.6v-2.2
		H219.3L219.3,10.8z M219.3,14.7c0.1,0.8,0.2,1.5,0.1,2.3v5.5c0,0.8,0,1.5-0.1,2.3h2.6c-0.1-0.8-0.1-1.5-0.1-2.3V17
		c0-0.8,0-1.5,0.1-2.3L219.3,14.7z M226.1,12c0.1,0.7,0.1,1.4,0.1,2.2v0.5h-0.6c-0.5,0-1.1,0-1.6-0.1v2.1c0.5-0.1,1-0.1,1.6-0.1h0.7
		v5.9c0,1.9,0.8,2.6,2.8,2.6c0.7,0,1.5-0.1,2.2-0.4l-0.3-1.9c-0.4,0.3-0.8,0.4-1.3,0.4c-0.5,0.1-1-0.2-1.2-0.8c0-0.1,0-0.3,0-0.4
		v-5.5h0.8c0.6,0,1.1,0,1.7,0.1v-2.1c-0.6,0.1-1.2,0.1-1.8,0.1h-0.7v-0.5c0-0.7,0-1.4,0.1-2.2L226.1,12z M242.6,17.6
		c-0.2-0.5-0.4-0.9-0.6-1.3c-0.9-1.3-2.4-2-3.9-1.9c-1.3-0.1-2.6,0.4-3.5,1.3c-1,1.1-1.5,2.6-1.5,4.1c0,3.2,2,5.4,5.1,5.4
		c1.5,0.1,2.9-0.6,3.9-1.8c0.3-0.5,0.6-1,0.7-1.5l-2.2-0.4c-0.1,0.3-0.2,0.6-0.3,0.9c-0.5,0.6-1.2,1-2,1c-1.8,0-2.9-1.4-2.9-3.5
		s1.1-3.5,2.8-3.5c0.7,0,1.4,0.3,1.8,0.8c0.2,0.3,0.4,0.7,0.5,1.1L242.6,17.6z M245.3,10.8c0.1,0.8,0.1,1.5,0.1,2.3v9.4
		c0,0.8,0,1.5-0.1,2.3h2.5c-0.1-0.8-0.1-1.5-0.1-2.3V19c0.8-1.8,1.8-2.6,3.1-2.6c0.5,0,0.9,0.2,1.2,0.5c0.4,0.5,0.6,1.1,0.5,1.7v3.9
		c0,0.8,0,1.5-0.1,2.3h2.5c-0.1-0.8-0.2-1.5-0.1-2.3v-4.4c0.2-1.8-1.1-3.4-2.8-3.5c-0.2,0-0.5,0-0.7,0c-1.5-0.1-2.8,0.6-3.6,1.9
		c0-0.2,0-0.5,0-0.8v-2.5c0-0.8,0-1.6,0.1-2.3H245.3z"/>
	<path class="st2" d="M258.9,21.8c2.9,0,7,0,10.5-0.5l0.1,1.3c-3.6,0.7-7.5,0.7-10.4,0.7L258.9,21.8z M268.5,15.5
		c0,2.3-1.9,3.9-4.4,3.9c-2.5,0-4.4-1.6-4.4-3.9s1.9-3.9,4.4-3.9C266.6,11.6,268.5,13.2,268.5,15.5z M261.5,15.5
		c0,1.4,1.1,2.3,2.6,2.3c1.5,0,2.6-0.9,2.6-2.3c0-1.4-1.1-2.3-2.6-2.3C262.6,13.2,261.5,14.1,261.5,15.5z M272.2,10.5v16.3h-1.9
		V10.5H272.2z M289.7,11.8c0,4.4-2,7.5-7.3,9.2l-0.8-1.5c2.6-0.8,4.2-1.9,5.1-3.3l-4.8,0.4l-0.3-1.5l5.8-0.2
		c0.2-0.5,0.3-1.1,0.3-1.7h-5.4v-1.5H289.7z M295.2,24.9v1.5h-10.9v-5.1h1.9v3.6H295.2z M292.8,15.5v-5.1h1.9v12h-1.9v-5.5h-3.2
		v-1.5H292.8z M313.4,23.2v1.5h-14.7v-1.5H313.4z M311.8,20.6h-11.3v-8.8h11.1v1.5h-9.3v2.1h8.9v1.5h-8.9v2.2h9.4V20.6z M330.9,18
		v1.4h-14.7V18h6.4v-1.1H318v-3.7h9.2v-1.1H318v-1.3h11v3.6h-9.2v1.2h9.5v1.3h-4.9V18H330.9z M319.7,25.3h9.8v1.3h-11.7v-3.7h9.4
		v-1.2h-9.4v-1.3h11.2V24h-9.4V25.3z M336,21.4c2.5,0,4.4-0.1,6.7-0.5l0.2,1.5c-2.4,0.4-4.5,0.5-7.4,0.5h-1.3v-6.6h5.4v-2.9h-5.5
		v-1.5h7.3v5.9H336V21.4z M347.1,10.4v16.3h-1.9v-8.7h-2.8v-1.5h2.8v-6.1H347.1z"/>
</g>
</svg>
