<svg height="94.47" viewBox="0 0 432.594 94.47" width="432.594" xmlns="http://www.w3.org/2000/svg"><path d="m550.392 4512.3h-9.106v45.79c0 12.57-6.415 18.93-16.141 18.93a19.958 19.958 0 0 1 -16.4-7.91l-6.105 6.26c3.984 4.91 10.71 10.4 22.557 10.4 14.331 0 25.2-9.52 25.2-26.8v-46.67zm39.466 22.25c-14.9 0-25.971 11.02-25.971 25.61s11.071 25.61 25.971 25.61 26.024-11.02 26.024-25.61-11.124-25.61-26.024-25.61zm0 7.96c9.83 0 17.332 7.35 17.332 17.65s-7.5 17.69-17.332 17.69c-9.881 0-17.331-7.4-17.331-17.69s7.45-17.65 17.331-17.65zm84.011-6.93h-9.312l-16.815 30.22-17.693-30.22h-9.468l22.4 38.65-18.16 31.46h9.365zm35.485 17.9h-29.076v7.66h29.076zm51.419-42.27c-21.729 0-37.509 15.63-37.509 37.31s15.78 37.3 37.509 37.3c12.52 0 23.333-5.59 29.438-14.64l-7.45-5.44c-4.759 7.09-12.675 11.33-21.988 11.33-15.935 0-27.989-11.53-27.989-28.55s12.054-28.56 27.989-28.56a26.141 26.141 0 0 1 22.04 11.38l7.605-5.12c-5.691-9.31-16.969-15.01-29.645-15.01zm67.144 23.34c-14.9 0-25.971 11.02-25.971 25.61s11.071 25.61 25.971 25.61 26.024-11.02 26.024-25.61-11.123-25.61-26.024-25.61zm0 7.96c9.83 0 17.332 7.35 17.332 17.65s-7.5 17.69-17.332 17.69c-9.881 0-17.331-7.4-17.331-17.69s7.45-17.65 17.331-17.65zm65.179-7.96c-5.691 0-12.054 1.91-16.09 7.45v-6.42h-8.381v49.15h8.433v-27.57c0-9.16 6.622-14.59 14.538-14.59 8.536 0 13.5 5.33 13.5 14.38v27.78h8.485v-30.52c.003-11.8-8.381-19.66-20.481-19.66zm31.422-11.58h-7.045v2.1h2.384v6.29h2.277v-6.29h2.384zm10.706 0h-3.157l-1.678 5.04-1.683-5.04h-3.158v8.39h2.277v-5.25l1.348 4.47h2.427l1.348-4.47v5.25h2.276z" fill="#1b1b1b" fill-rule="evenodd" transform="translate(-502.625 -4511.22)"/></svg>