<svg xmlns="http://www.w3.org/2000/svg" viewBox="0 0 150 150"><path d="M51.07 42.17a6.31 6.31 0 1 0 6.33-6.29h-.02c-3.48 0-6.3 2.82-6.31 6.29zm21.44-20.06H57.83c-9.49-.02-17.2 7.66-17.22 17.15v32.58c.02 9.49 7.73 17.17 17.22 17.15h14.68c.27 0 .49-.22.49-.49V22.6a.49.49 0 0 0-.49-.49zM67.59 83.6h-9.76c-3.13.01-6.14-1.23-8.35-3.44a11.64 11.64 0 0 1-3.45-8.31V39.26c-.01-3.12 1.23-6.12 3.45-8.31 2.21-2.21 5.22-3.45 8.35-3.44h9.76V83.6zm22.95-61.49H80.15c-.24 0-.43.19-.43.43V88.5c0 .27.22.49.49.49h10.33c9.49.02 17.2-7.66 17.22-17.15V39.26c-.02-9.49-7.73-17.17-17.22-17.15zM93 65.66c-3.73-.02-6.75-3.06-6.73-6.79.02-3.73 3.06-6.75 6.79-6.73 3.72.02 6.73 3.04 6.73 6.76-.01 3.74-3.05 6.76-6.79 6.76zm-26.18 61.9h3.52v-15.75h-3.52v15.75zm52.98 0h3.27v-15.75h-3.27v6.21h-7.39v-6.21h-3.27v15.76h3.27v-6.29h7.39v6.28zm-40.54 0h3.4v-12.41h4.95v-3.34H74.2v3.34h5.06v12.41zM24 126.33c2.15 1.08 4.52 1.65 6.92 1.67 5.04 0 7.7-1.74 7.7-5.02 0-1.9-.65-3.89-7.34-4.98-2.29-.37-3.76-.8-3.76-1.86 0-1.23 1.64-1.7 3.85-1.7 1.67.06 3.31.43 4.84 1.09l1.12-2.73c-1.95-.76-4.02-1.17-6.12-1.21-3.42 0-7.05 1.66-7.05 4.74 0 2.5 1.76 3.77 6.3 4.55 3.2.55 4.96.85 4.91 2.22-.03.75-.62 2.02-4.22 2.02-1.98.02-3.93-.49-5.65-1.47l-1.5 2.68zm74.51-15.04c-4.65.02-8.4 3.79-8.38 8.44.02 4.65 3.79 8.4 8.44 8.38 2.79-.01 5.4-1.4 6.96-3.72l-2.57-2.23a5.085 5.085 0 0 1-4.35 2.45c-2.71.07-4.96-2.08-5.03-4.79-.07-2.71 2.08-4.96 4.79-5.03h.24c1.78 0 3.43.93 4.35 2.45l2.57-2.23a8.43 8.43 0 0 0-7.02-3.72zm-43.93 16.27h3.81l4.5-15.76h-3.44l-3.05 11.43-3.35-11.43h-2.81l-3.34 11.4-3.04-11.39h-3.44l4.47 15.76h3.81l2.95-10.38 2.93 10.37zm18.9-28.37v8.35H80V106h-4.82v-1.96h4.46v-1.51h-4.46v-1.8H80V99.2l-6.52-.01zm-34.92 8.34h1.86v-8.35h-1.86v8.35zm24.36 0h1.8v-6.58h2.62v-1.77h-7.1v1.77h2.68v6.58zm56.31-8.63c-2.46 0-4.46 2-4.45 4.46 0 2.46 2 4.46 4.46 4.45 2.46 0 4.45-2 4.45-4.46-.01-2.45-2-4.44-4.46-4.45zm0 7.06c-1.44 0-2.6-1.16-2.6-2.6 0-1.44 1.16-2.6 2.6-2.6 1.44 0 2.6 1.16 2.6 2.6 0 1.43-1.17 2.59-2.6 2.6zm-17.67 1.57h3.47c2.31.07 4.23-1.74 4.31-4.05a4.186 4.186 0 0 0-4.05-4.31h-3.73v8.36zm3.55-1.75h-1.83v-4.84h1.83c1.34 0 2.42 1.08 2.42 2.42.01 1.33-1.08 2.42-2.42 2.42zm-74.53 1.75h1.65v-8.35h-1.7v5.49l-4.12-5.49h-1.7v8.35h1.7v-5.59l4.17 5.59zm22.03 0h1.65v-8.35h-1.7v5.49l-4.12-5.49h-1.69v8.35h1.7v-5.59l4.16 5.59zm40.2 0h1.66v-8.35h-1.7v5.49l-4.13-5.49h-1.69v8.35h1.7v-5.59l4.16 5.59zm32.64 17.41h-1.06v-.56h2.75v.56h-1.05v2.62h-.64v-2.62zm2.18 2.62v-3.19h.87l.82 2.29.8-2.29h.88v3.19h-.6v-2.55l-.88 2.55h-.42l-.88-2.55v2.55h-.59z" fill-rule="evenodd" clip-rule="evenodd" fill="#fff"/></svg>