<?xml version="1.0" encoding="utf-8"?>
<!-- Generator: Adobe Illustrator 25.4.1, SVG Export Plug-In . SVG Version: 6.00 Build 0)  -->
<svg version="1.1" id="price3.svg" xmlns="http://www.w3.org/2000/svg" xmlns:xlink="http://www.w3.org/1999/xlink" x="0px" y="0px"
	 viewBox="0 0 257.8 24.7" style="enable-background:new 0 0 257.8 24.7;" xml:space="preserve">
<style type="text/css">
	.st0{fill:#FFFFFF;stroke:#FFFFFF;stroke-width:0.3;stroke-miterlimit:10;}
</style>
<g>
	<path class="st0" d="M0,17.8c2.4,0,5.5,0,8.2-0.4l0.1,1.1C5.4,19,2.5,19,0.2,19L0,17.8z M7.9,11.4H0.3v-1.1h3.1V8.8h1.4v1.5h3.1
		V11.4z M4.1,12.1c1.8,0,3.1,1,3.1,2.4s-1.2,2.4-3.1,2.4c-1.8,0-3.1-1-3.1-2.4S2.3,12.1,4.1,12.1z M4.1,13.2c-1,0-1.7,0.5-1.7,1.3
		c0,0.8,0.7,1.3,1.7,1.3c1,0,1.7-0.5,1.7-1.3C5.8,13.6,5.1,13.2,4.1,13.2z M10.3,8.7v12.7H8.9V8.7H10.3z"/>
	<path class="st0" d="M19.2,15.1h-5.9V9.6h5.9V15.1z M22.8,18.9c0,1.5-1.6,2.4-4.2,2.4c-2.6,0-4.2-0.9-4.2-2.4
		c0-1.5,1.6-2.4,4.2-2.4C21.2,16.5,22.8,17.4,22.8,18.9z M17.8,10.8h-3.1V14h3.1V10.8z M21.4,18.9c0-0.8-1-1.3-2.8-1.3
		c-1.8,0-2.8,0.4-2.8,1.3c0,0.8,1,1.3,2.8,1.3C20.4,20.2,21.4,19.7,21.4,18.9z M24.5,11.7v1.2h-1.8v3.2h-1.4V8.7h1.4v3H24.5z"/>
	<path class="st0" d="M37.1,18.6v1.2H25.7v-1.2h4.9v-3h1.4v3H37.1z M36.1,15.9c-2.1-0.4-3.9-1.7-4.7-3.3c-0.8,1.7-2.6,2.9-4.7,3.3
		l-0.6-1.2c2.5-0.4,4.5-2.3,4.5-4.3v-1h1.5v1c0,2,2,3.8,4.5,4.3L36.1,15.9z"/>
	<path class="st0" d="M40.7,9.7v3.2h3.2V9.7h1.4v8.6h-6.1V9.7H40.7z M40.7,17.2h3.2v-3.1h-3.2V17.2z M49,8.7v12.7h-1.5V8.7H49z"/>
	<path class="st0" d="M55.9,12.3c0,2,1.2,4.2,3.2,5.1l-0.8,1.1c-1.4-0.7-2.5-2.1-3.1-3.7c-0.6,1.8-1.7,3.3-3.1,4l-0.8-1.1
		c1.9-0.9,3.2-3.3,3.2-5.4v-1.2h-2.8V9.9h6.9v1.2h-2.7V12.3z M63.2,14.8h-2v6.5h-1.4V8.7h1.4v5h2V14.8z"/>
	<path class="st0" d="M70.8,10c0,3.7-1.6,6.9-5.7,9l-0.8-1.1c3.1-1.6,4.8-3.8,5.1-6.7h-4.4V10H70.8z M76,14.9h-1.9v6.4h-1.4V8.7h1.4
		v5H76V14.9z"/>
	<path class="st0" d="M87.7,8.7v7.5h-1.4v-1.5h-3.1v-1.2h3.1V12h-2.9c-0.8,2-2.7,3.4-5.4,4.1L77.4,15c2.9-0.8,4.7-2.4,5-4.3H78V9.5
		h5.8c0,0.5,0,0.9-0.1,1.3h2.5V8.7H87.7z M79.2,16.8h8.5v4.5h-1.4v-3.4h-7.1V16.8z"/>
	<path class="st0" d="M93.5,13.8c0-0.7,0.5-1.1,1.1-1.1c0.6,0,1.1,0.5,1.1,1.1c0,0.6-0.5,1.1-1.1,1.1C94,14.9,93.5,14.4,93.5,13.8z
		 M93.5,19.3c0-0.7,0.5-1.1,1.1-1.1c0.6,0,1.1,0.5,1.1,1.1s-0.5,1.1-1.1,1.1C94,20.4,93.5,20,93.5,19.3z"/>
	<path class="st0" d="M100.9,15.7h2.6c0.1,2.1,1.7,3.8,4.5,3.8c2.8,0,4.5-1.6,4.5-3.6c0-2.2-1.8-3.6-4.8-3.6h-2.2v-2.2h2.2
		c2.5,0,4.3-1.5,4.3-3.5c0-1.9-1.5-3.5-4.2-3.5c-2.7,0-4.2,1.9-4.2,4h-2.6c0-3.5,2.7-6.3,6.8-6.3c4.1,0,6.8,2.6,6.8,5.7
		c0,2.5-1.7,4.1-3.6,4.6c2,0.4,4.1,1.9,4.1,4.7c0,3.3-2.8,5.9-7,5.9C103.7,21.8,101.1,19.2,100.9,15.7z"/>
	<path class="st0" d="M124.8,8.2c3.9,0,7,2.7,7,6.7c0,4.2-3.2,6.8-7.2,6.8c-4,0-7.3-2.7-7.3-6.8c0-2,0.7-3.6,1.9-5.5l5.4-8.1h3
		l-5,7.3C123.2,8.4,124,8.2,124.8,8.2z M129.3,14.9c0-2.6-1.8-4.6-4.7-4.6c-2.9,0-4.7,2-4.7,4.6c0,2.5,1.8,4.5,4.7,4.5
		C127.5,19.5,129.3,17.5,129.3,14.9z"/>
	<path class="st0" d="M134.7,11.3c0-7,3.2-10.5,7.4-10.5c4.2,0,7.4,3.5,7.4,10.5s-3.2,10.5-7.4,10.5
		C137.8,21.8,134.7,18.3,134.7,11.3z M146.9,11.3c0-5.4-2.1-8.1-4.8-8.1c-2.7,0-4.9,2.7-4.9,8.1c0,5.4,2.1,8.1,4.9,8.1
		C144.8,19.4,146.9,16.7,146.9,11.3z"/>
	<path class="st0" d="M153.4,23.8h-2l0.8-5.6h2.5L153.4,23.8z"/>
	<path class="st0" d="M157.3,11.3c0-7,3.2-10.5,7.4-10.5c4.2,0,7.4,3.5,7.4,10.5s-3.2,10.5-7.4,10.5
		C160.5,21.8,157.3,18.3,157.3,11.3z M169.5,11.3c0-5.4-2.1-8.1-4.8-8.1c-2.7,0-4.9,2.7-4.9,8.1c0,5.4,2.1,8.1,4.9,8.1
		C167.4,19.4,169.5,16.7,169.5,11.3z"/>
	<path class="st0" d="M175.4,11.3c0-7,3.2-10.5,7.4-10.5c4.2,0,7.4,3.5,7.4,10.5s-3.2,10.5-7.4,10.5
		C178.5,21.8,175.4,18.3,175.4,11.3z M187.6,11.3c0-5.4-2.1-8.1-4.8-8.1c-2.7,0-4.9,2.7-4.9,8.1c0,5.4,2.1,8.1,4.9,8.1
		C185.5,19.4,187.6,16.7,187.6,11.3z"/>
	<path class="st0" d="M193.4,11.3c0-7,3.2-10.5,7.4-10.5c4.2,0,7.4,3.5,7.4,10.5s-3.2,10.5-7.4,10.5
		C196.6,21.8,193.4,18.3,193.4,11.3z M205.7,11.3c0-5.4-2.1-8.1-4.8-8.1c-2.7,0-4.9,2.7-4.9,8.1c0,5.4,2.1,8.1,4.9,8.1
		C203.5,19.4,205.7,16.7,205.7,11.3z"/>
	<path class="st0" d="M214.4,15.5c-1.2,0.1-2.4,0.1-3.3,0.1l-0.2-1.2c2.3,0,5.4,0,8.1-0.4l0.1,1c-1.1,0.2-2.2,0.3-3.2,0.4v2.4h-1.4
		V15.5z M211.9,11.4c0-1.3,1.3-2.2,3.1-2.2c1.8,0,3.1,0.9,3.1,2.2s-1.3,2.2-3.1,2.2C213.1,13.6,211.9,12.7,211.9,11.4z M221.7,19.9
		v1.2h-9.1v-3.7h1.4v2.6H221.7z M213.2,11.4c0,0.7,0.7,1.2,1.8,1.2c1,0,1.8-0.4,1.8-1.2c0-0.7-0.7-1.2-1.8-1.2
		C213.9,10.2,213.2,10.7,213.2,11.4z M220,16.1V8.7h1.4v9.6H220v-1.2h-2.5v-1H220z"/>
</g>
</svg>
