<?xml version="1.0" encoding="utf-8"?>
<!-- Generator: Adobe Illustrator 25.4.1, SVG Export Plug-In . SVG Version: 6.00 Build 0)  -->
<svg version="1.1" id="Layer_1" xmlns="http://www.w3.org/2000/svg" xmlns:xlink="http://www.w3.org/1999/xlink" x="0px" y="0px"
	 viewBox="0 0 573.8 22.2" style="enable-background:new 0 0 573.8 22.2;" xml:space="preserve">
<style type="text/css">
	.st0{fill-rule:evenodd;clip-rule:evenodd;fill:#FFFFFF;}
	.st1{fill:#FFFFFF;stroke:#FFFFFF;stroke-width:0.5;stroke-miterlimit:10;}
</style>
<path class="st0" d="M283.6,21.1h3.2v-14h0.1l9,14h4.1V2.9h-3.2v13.5h-0.1l-8.8-13.5h-4.3L283.6,21.1z M307.5,21.1h3.1V8.8h-3.1
	V21.1z M307.6,5.9c0.4,0.4,0.9,0.6,1.4,0.6c0.5,0,1-0.2,1.4-0.5c0.7-0.7,0.8-1.8,0.1-2.6c0,0-0.1-0.1-0.1-0.1
	c-0.4-0.4-0.9-0.5-1.4-0.5c-0.5,0-1,0.2-1.4,0.6C306.9,4,306.9,5.1,307.6,5.9C307.6,5.8,307.6,5.9,307.6,5.9L307.6,5.9z M317.9,21.1
	h3.1v-6.7c0-0.4,0-0.8,0.2-1.2c0.1-0.4,0.3-0.7,0.5-1c0.2-0.3,0.5-0.5,0.9-0.7c0.4-0.2,0.9-0.3,1.3-0.3c0.5,0,0.9,0.1,1.3,0.4
	c0.3,0.2,0.5,0.6,0.7,0.9c0.1,0.4,0.2,0.8,0.3,1.2c0,0.4,0.1,0.8,0.1,1.1v6.3h3.1v-7.8c0-0.6-0.1-1.2-0.2-1.8
	c-0.1-0.6-0.4-1.1-0.8-1.5c-0.4-0.5-0.9-0.8-1.4-1.1c-0.7-0.3-1.4-0.4-2.1-0.4c-0.9,0-1.7,0.2-2.4,0.7c-0.6,0.4-1,1-1.3,1.6h-0.1v-2
	h-2.9L317.9,21.1L317.9,21.1z M337.4,11.4v5.7c0,0.6,0,1.3,0.2,1.9c0.1,0.5,0.3,1,0.6,1.4c0.3,0.4,0.8,0.7,1.2,0.8
	c0.7,0.2,1.3,0.3,2,0.3c0.4,0,0.8,0,1.3-0.1c0.4,0,0.8-0.2,1.2-0.3v-2.6c-0.2,0.2-0.5,0.3-0.8,0.3c-0.3,0.1-0.6,0.1-0.9,0.1
	c-0.5,0.1-1-0.1-1.4-0.5c-0.3-0.4-0.4-1-0.3-1.5v-5.4h3.4V8.8h-3.4V5.2h-3.1v3.6h-2.6v2.6L337.4,11.4L337.4,11.4z M361.7,16v-0.8
	c0-1-0.1-1.9-0.4-2.9c-0.3-0.8-0.7-1.5-1.2-2.1c-0.5-0.6-1.1-1-1.8-1.3c-0.7-0.3-1.6-0.5-2.4-0.5c-0.9,0-1.8,0.2-2.6,0.5
	c-0.8,0.3-1.5,0.7-2.1,1.3c-0.6,0.6-1.1,1.3-1.4,2c-0.7,1.7-0.7,3.6,0,5.3c0.3,0.8,0.8,1.5,1.4,2c0.6,0.6,1.3,1,2.1,1.3
	c0.8,0.3,1.7,0.5,2.6,0.5c1,0,1.9-0.2,2.8-0.6c1-0.4,1.8-1.1,2.4-1.9l-2.2-1.7c-0.4,0.5-0.9,0.9-1.4,1.2c-0.6,0.3-1.3,0.5-1.9,0.5
	c-0.8,0-1.6-0.3-2.2-0.8c-0.6-0.5-1-1.3-1.1-2.2H361.7z M352.3,13.7c0.1-0.8,0.4-1.6,1-2.1c0.6-0.6,1.4-0.8,2.2-0.8
	c0.8,0,1.7,0.2,2.3,0.8c0.6,0.6,0.9,1.3,0.9,2.2L352.3,13.7L352.3,13.7z M368.3,21.1h3.1v-6.7c0-0.4,0.1-0.8,0.2-1.2
	c0.1-0.4,0.3-0.7,0.5-1c0.2-0.3,0.5-0.5,0.9-0.7c0.4-0.2,0.9-0.3,1.3-0.3c0.5,0,0.9,0.1,1.3,0.4c0.3,0.2,0.5,0.6,0.7,0.9
	c0.1,0.4,0.2,0.8,0.3,1.2c0,0.4,0.1,0.8,0.1,1.1v6.3h3.1v-7.8c0-0.6-0.1-1.2-0.2-1.8c-0.1-0.6-0.4-1.1-0.8-1.5
	c-0.4-0.5-0.9-0.8-1.4-1.1c-0.7-0.3-1.4-0.4-2.1-0.4c-0.9,0-1.7,0.2-2.4,0.7c-0.6,0.4-1,1-1.3,1.6h-0.1v-2h-2.9L368.3,21.1z
	 M396.6,21.1h2.9V1.7h-3.1v8.7h-0.1c-0.2-0.2-0.4-0.4-0.6-0.6c-0.3-0.2-0.6-0.4-0.9-0.6c-0.4-0.2-0.8-0.4-1.2-0.5
	c-0.5-0.1-1-0.2-1.5-0.2c-0.8,0-1.7,0.2-2.4,0.5c-0.7,0.3-1.4,0.8-1.9,1.4c-0.5,0.6-1,1.3-1.2,2.1c-0.3,0.8-0.4,1.7-0.4,2.5
	c0,0.9,0.1,1.7,0.4,2.5c0.3,0.8,0.7,1.5,1.2,2.1c0.5,0.6,1.2,1.1,1.9,1.4c0.8,0.3,1.7,0.5,2.6,0.5c0.8,0,1.7-0.2,2.4-0.5
	c0.8-0.3,1.4-0.9,1.8-1.6h0.1V21.1z M389.5,13.6c0.2-0.4,0.4-0.8,0.7-1.2c1.4-1.5,3.7-1.5,5.2-0.2c0.1,0.1,0.1,0.1,0.2,0.2
	c0.3,0.3,0.6,0.7,0.7,1.2c0.3,0.9,0.3,1.9,0,2.8c-0.2,0.4-0.4,0.8-0.7,1.2c-1.4,1.5-3.7,1.5-5.2,0.2c-0.1-0.1-0.1-0.1-0.2-0.2
	c-0.3-0.3-0.6-0.7-0.7-1.2C389.2,15.4,389.2,14.5,389.5,13.6L389.5,13.6z M406.6,17.6c0.7,1.6,2,2.8,3.6,3.4c1.7,0.6,3.6,0.6,5.3,0
	c0.8-0.3,1.5-0.7,2.1-1.3c0.6-0.6,1.1-1.3,1.4-2c0.7-1.7,0.7-3.6,0-5.3c-0.3-0.8-0.8-1.5-1.4-2c-0.6-0.6-1.3-1-2.1-1.3
	c-1.7-0.6-3.6-0.6-5.3,0c-0.8,0.3-1.5,0.7-2.1,1.3c-0.6,0.6-1.1,1.3-1.4,2C405.9,14,405.9,15.9,406.6,17.6L406.6,17.6z M409.4,13.6
	c0.2-0.4,0.4-0.8,0.7-1.2c1.4-1.5,3.7-1.5,5.2-0.2c0.1,0.1,0.1,0.1,0.2,0.2c0.3,0.3,0.6,0.7,0.7,1.2c0.3,0.9,0.3,1.9,0,2.8
	c-0.2,0.4-0.4,0.8-0.7,1.2c-1.4,1.5-3.7,1.5-5.2,0.2c-0.1-0.1-0.1-0.1-0.2-0.2c-0.3-0.3-0.6-0.7-0.7-1.2
	C409.1,15.4,409.1,14.5,409.4,13.6L409.4,13.6z M448.9,4.3c-0.7-0.7-1.5-1.1-2.4-1.4c-0.9-0.3-1.8-0.4-2.8-0.4
	c-0.8,0-1.7,0.1-2.5,0.3c-0.8,0.2-1.5,0.6-2.2,1c-0.6,0.5-1.1,1-1.5,1.7c-0.4,0.8-0.6,1.6-0.6,2.4c0,0.9,0.2,1.8,0.6,2.6
	c0.4,0.6,1,1.2,1.6,1.5c0.7,0.4,1.4,0.7,2.1,0.9c0.8,0.2,1.5,0.5,2.1,0.7c0.6,0.2,1.1,0.5,1.6,0.9c0.4,0.4,0.7,1,0.6,1.5
	c0,0.4-0.1,0.8-0.3,1.1c-0.2,0.3-0.4,0.6-0.7,0.8c-0.3,0.2-0.7,0.4-1,0.5c-0.4,0.1-0.8,0.2-1.1,0.2c-0.7,0-1.4-0.2-2-0.5
	c-0.6-0.3-1.2-0.8-1.6-1.4l-2.4,2.4C437,20,438,20.7,439,21c1.1,0.4,2.2,0.6,3.3,0.6c0.9,0,1.7-0.1,2.6-0.4c0.8-0.2,1.5-0.6,2.1-1.1
	c0.6-0.5,1.1-1.1,1.5-1.8c0.4-0.8,0.6-1.7,0.5-2.6c0-0.9-0.2-1.8-0.6-2.6c-0.4-0.6-1-1.2-1.6-1.6c-0.7-0.4-1.4-0.7-2.1-0.9
	c-0.8-0.2-1.5-0.5-2.1-0.7c-0.6-0.2-1.1-0.5-1.6-0.9c-0.4-0.3-0.7-0.9-0.6-1.4c0-0.4,0.1-0.7,0.3-1.1c0.2-0.3,0.4-0.5,0.7-0.7
	c0.3-0.2,0.6-0.3,1-0.4c0.4-0.1,0.7-0.1,1.1-0.1c0.6,0,1.2,0.1,1.8,0.3c0.6,0.2,1,0.6,1.4,1.1L448.9,4.3z M458,21.1h3.2l2.6-8.5h0
	l2.9,8.5h3.1L474,8.8h-3.1l-2.6,8.7h-0.1l-2.7-8.7h-3.3l-2.5,8.7h-0.1L457,8.8h-3.4L458,21.1z M479.7,21.1h3.1V8.8h-3.1V21.1z
	 M479.8,5.9c0.4,0.4,0.9,0.6,1.4,0.6c0.5,0,1-0.2,1.4-0.5c0.7-0.7,0.8-1.8,0.1-2.6c0,0-0.1-0.1-0.1-0.1c-0.4-0.4-0.9-0.5-1.4-0.5
	c-0.5,0-1,0.2-1.4,0.6C479.1,4,479.1,5.1,479.8,5.9C479.8,5.8,479.8,5.9,479.8,5.9L479.8,5.9z M491.1,11.4v5.7c0,0.6,0,1.3,0.2,1.9
	c0.1,0.5,0.3,1,0.6,1.4c0.3,0.4,0.8,0.7,1.2,0.8c0.7,0.2,1.3,0.3,2,0.3c0.4,0,0.8,0,1.2-0.1c0.4,0,0.8-0.2,1.2-0.3v-2.6
	c-0.2,0.2-0.5,0.3-0.8,0.3c-0.3,0.1-0.6,0.1-0.9,0.1c-0.5,0.1-1-0.1-1.4-0.5c-0.3-0.4-0.4-1-0.3-1.5v-5.4h3.4V8.8h-3.4V5.2h-3.1v3.6
	h-2.6v2.6L491.1,11.4L491.1,11.4z M514.1,10.3c-0.6-0.6-1.3-1.1-2.1-1.4c-0.8-0.3-1.6-0.4-2.4-0.5c-0.9,0-1.8,0.2-2.6,0.5
	c-0.8,0.3-1.5,0.7-2.1,1.3c-0.6,0.6-1.1,1.3-1.4,2c-0.7,1.7-0.7,3.6,0,5.3c0.3,0.8,0.8,1.5,1.4,2c0.6,0.6,1.3,1,2.1,1.3
	c0.8,0.3,1.7,0.5,2.6,0.5c0.3,0,0.7,0,1-0.1c0.4-0.1,0.8-0.2,1.2-0.3c0.4-0.1,0.8-0.3,1.2-0.5c0.4-0.2,0.8-0.5,1.1-0.8l-2.1-2.2
	c-0.3,0.4-0.6,0.7-1.1,0.9c-0.4,0.2-0.9,0.3-1.3,0.3c-1,0-2-0.4-2.7-1.1c-0.3-0.3-0.6-0.7-0.7-1.2c-0.3-0.9-0.3-1.9,0-2.8
	c0.2-0.4,0.4-0.8,0.7-1.2c0.7-0.7,1.7-1.2,2.7-1.1c0.4,0,0.8,0.1,1.2,0.3c0.4,0.2,0.8,0.5,1.1,0.9L514.1,10.3z M522.9,1.7h-3.1v19.5
	h3.1v-6.7c0-0.4,0-0.8,0.2-1.2c0.1-0.4,0.3-0.7,0.5-1c0.2-0.3,0.5-0.5,0.9-0.7c0.4-0.2,0.9-0.3,1.3-0.3c0.5,0,0.9,0.1,1.3,0.4
	c0.3,0.2,0.5,0.6,0.7,0.9c0.1,0.4,0.2,0.8,0.3,1.2c0,0.4,0.1,0.8,0.1,1.1v6.3h3.1v-7.8c0-0.6-0.1-1.2-0.2-1.8
	c-0.1-0.6-0.4-1.1-0.8-1.5c-0.4-0.5-0.9-0.8-1.4-1.1c-0.7-0.3-1.4-0.4-2.1-0.4c-0.8,0-1.7,0.2-2.4,0.6c-0.5,0.3-1,0.8-1.3,1.4h-0.1
	L522.9,1.7L522.9,1.7z"/>
<path class="st1" d="M1.5,18l1.4-1.8c1.1,1.1,2.4,2,4.3,2c2.1,0,3.5-1.1,3.5-3c0-2-1.3-3.4-5.4-3.4V9.6c3.6,0,4.8-1.4,4.8-3.2
	c0-1.6-1.1-2.6-2.8-2.7c-1.4,0-2.6,0.7-3.7,1.7L2.1,3.7c1.4-1.3,3.1-2.2,5.3-2.2c3.3,0,5.6,1.7,5.6,4.7c0,2.1-1.2,3.6-3.2,4.3v0.1
	c2.1,0.5,3.8,2.1,3.8,4.6c0,3.3-2.8,5.3-6.1,5.3C4.6,20.5,2.7,19.4,1.5,18z M28.1,2.9c0,6-2.6,11.4-9.4,14.8l-1.3-1.8
	c5.1-2.6,7.8-6.3,8.3-11h-7.3V2.9H28.1z M36.6,10.9h-3.2v10.6h-2.4V0.7h2.4v8.2h3.2V10.9z M47.4,6.7c0,3.4,2.1,7,5.4,8.4L51.5,17
	c-2.4-1.1-4.3-3.3-5.2-6c-0.9,2.9-2.8,5.4-5.2,6.5l-1.4-1.9c3.2-1.5,5.4-5.4,5.4-8.9v-2h-4.6v-2H52v2h-4.6V6.7z M56.8,0.7v20.8h-2.4
	V0.7H56.8z M87.2,9.7v1.9H68.3V9.7H87.2z M73,3.1H70V1.3h15.4v1.8h-2.9v3.4h2.8v1.8H70.1V6.5H73V3.1z M73,19.5h12.4v1.8H70.6v-5
	h11.8v-1.4H70.6v-1.7h14.2v4.8H73V19.5z M80.1,3.1h-4.8v3.4h4.8V3.1z M93.6,14.5c2.2,0,4.2-0.1,6.7-0.6l0.2,2
	c-2.8,0.5-5.1,0.6-7.7,0.6h-1.4v-8h5.1V4.8h-5.1V2.9h7.4v7.5h-5.1V14.5z M101.9,1.2h2.2v19.3h-2.2V9.9h-2.3V8h2.3V1.2z M108.4,0.7
	v20.8h-2.3V0.7H108.4z M124.4,9.5c0,4.5-2.3,7.3-5.4,7.3c-3.1,0-5.3-2.8-5.3-7.3c0-4.5,2.3-7.3,5.3-7.3
	C122.1,2.2,124.4,5.1,124.4,9.5z M116,9.5c0,3.3,1.3,5.2,3.1,5.2c1.8,0,3.1-2,3.1-5.2c0-3.2-1.3-5.2-3.1-5.2
	C117.2,4.4,116,6.3,116,9.5z M130.1,0.7v20.8h-2.4V0.7H130.1z M154.1,17v1.9h-18.8V17h8.2v-4.7h-6.1V2.4h14.5v9.9h-6.1V17H154.1z
	 M139.7,10.4h9.9V4.2h-9.9V10.4z M176.4,16.8v2h-18.8v-2H176.4z M174.3,12.4h-14.4V2.5h14.2v1.9h-11.9v6h12V12.4z M198.7,17.1v2
	h-18.8v-2h8.2v-3.5h-5.9V6.8h12V4.1h-12V2.1h14.3v6.6h-12v2.9H197v1.9h-6.5v3.5H198.7z M227.3,9.3v1.9h-18.8V9.3H227.3z M209.5,6.7
	c3.9-0.3,6.6-1.7,7-3.4h-6.2V1.4h15.4v1.9h-6.2c0.4,1.7,3.1,3.1,7,3.4l-0.7,1.8c-3.6-0.3-6.5-1.6-7.7-3.5c-1.2,1.9-4.1,3.2-7.7,3.5
	L209.5,6.7z M213.2,19.5h12.4v1.8h-14.8v-5.2h11.8v-1.5h-11.9v-1.8H225v5h-11.8V19.5z M241.9,2.9c0,6.2-2.5,11.4-9.6,14.9l-1.3-1.9
	c5.5-2.6,8-6.3,8.4-11.1H232V2.9H241.9z M248,0.7v20.8h-2.4V0.7H248z M272,11.1V13h-18.9v-1.9H272z M257.8,19.1H270V21h-14.5v-6.1
	h2.4V19.1z M269.8,8.6h-14.3V1.4h2.4v5.2h11.9V8.6z"/>
</svg>
