<?xml version="1.0" encoding="utf-8"?>
<!-- Generator: Adobe Illustrator 25.4.1, SVG Export Plug-In . SVG Version: 6.00 Build 0)  -->
<svg version="1.1" id="Layer_1" xmlns="http://www.w3.org/2000/svg" xmlns:xlink="http://www.w3.org/1999/xlink" x="0px" y="0px"
	 viewBox="0 0 773.5 44.6" style="enable-background:new 0 0 773.5 44.6;" xml:space="preserve">
<style type="text/css">
	.st0{fill:#FFFFFF;stroke:#FFFFFF;stroke-miterlimit:10;}
	.st1{fill:#FFFFFF;}
</style>
<path class="st0" d="M23.8,16.7c-0.9,4.9-5,8.2-10.3,8.2c-6,0-10.6-4.2-10.6-10.2c0-5.9,4.6-10.2,10.6-10.2c5.4,0,9.6,3.5,10.4,8.4
	h7.5V2H36v29.8h-4.6V16.7H23.8z M13.5,20.9c3.5,0,6.1-2.5,6.1-6.2c0-3.7-2.7-6.1-6.1-6.1c-3.5,0-6.2,2.4-6.2,6.1
	C7.3,18.4,9.9,20.9,13.5,20.9z M37,38.1v3.8H9.6v-13h4.6v9.2H37z M56,13.1c0,6.9,2.6,13.9,8.3,17.2l-2.7,3.4
	c-3.8-2.3-6.3-6.3-7.8-11c-1.4,5.1-4,9.5-8,12l-2.8-3.4c5.8-3.6,8.5-10.9,8.5-18.2v-2.9h-7.2V6.4h18.4v3.8H56V13.1z M65.7,2.7h4.4
	v37.9h-4.4V20h-6v-3.8h6V2.7z M78.3,1.9v40.6h-4.4V1.9H78.3z M142.4,1.9v40.8h-4.7V20.9h-7.9c-0.5,7.9-4.7,12.7-10.3,12.7
	c-6,0-10.3-5.5-10.3-14.4c0-8.7,4.3-14.3,10.3-14.3c5.4,0,9.6,4.7,10.2,12.1h7.9V1.9H142.4z M125.5,19.2c0-6.3-2.4-10.1-5.9-10.1
	c-3.5,0-5.8,3.8-5.8,10.1c0,6.4,2.4,10.2,5.8,10.2C123.1,29.5,125.5,25.7,125.5,19.2z M157.1,28.9c7.6,0,12.4-0.3,17.9-1.3l0.5,3.9
	c-5.9,1.1-11.2,1.3-19.6,1.3h-3.4v-27h19.3v3.8h-14.8V28.9z M183.5,1.9v40.8h-4.7V1.9H183.5z M206.1,12c0,7.6,3.9,14.9,10.1,17.8
	l-2.7,3.7c-4.6-2.3-7.9-6.7-9.6-12.2c-1.8,5.8-5.1,10.5-9.8,12.9l-2.9-3.7c6.3-3.1,10.3-10.9,10.3-18.5V5.2h4.7V12z M225.2,1.9v40.8
	h-4.7V19h-8.7v-3.8h8.7V1.9H225.2z M269.6,22.3V26h-36.8v-3.8H269.6z M242,38.1h23.8v3.7h-28.4v-12h4.6V38.1z M265.5,18.3h-28V3.6
	h27.7v3.7H242v7.2h23.4V18.3z M334.6,28.2h-16.2v14.5h-4.7V28.2h-15.9v-3.8h36.9V28.2z M330.5,18.9h-28.1v-15h4.6v11.3h23.4V18.9z
	 M375.9,25.6h-16.2v17H355v-17h-15.9v-3.8h26.4c1.2-5.7,1.2-9.9,1.2-13.6h-23.2V4.4h27.7V8c0,3.8,0,8.1-1,13.8h5.7V25.6z M395,30
	c3.5-0.1,6.9-0.4,10.2-0.9l0.4,3.4c-8.5,1.5-17.8,1.5-24.8,1.5l-0.6-3.8c3.1,0,6.6,0,10.2-0.1v-6.4c-5-0.9-8.6-4.6-8.6-9.6
	c0-5.8,4.6-9.8,10.9-9.8s10.8,4,10.8,9.8c0,5-3.5,8.6-8.5,9.5V30z M392.6,20c3.7,0,6.3-2.2,6.3-5.8s-2.7-5.8-6.3-5.8
	s-6.4,2.2-6.4,5.8S388.9,20,392.6,20z M418.1,22.2h-6v20.3h-4.6V2h4.6v16.4h6V22.2z M458.8,33.9v3.8H422v-3.8h16v-9.6h-11.5V5h27.8
	v3.7h-23.2v11.8h23.5v3.7h-12v9.6H458.8z"/>
<g>
	<path class="st1" d="M90.7,44.1H87l1.4-10.2h4.5L90.7,44.1z"/>
</g>
<g>
	<path class="st1" d="M277.4,44.1h-3.7l1.4-10.2h4.5L277.4,44.1z"/>
</g>
</svg>
